<?xml version="1.0" standalone="no"?>
<!DOCTYPE svg PUBLIC "-//W3C//DTD SVG 20010904//EN"
 "http://www.w3.org/TR/2001/REC-SVG-20010904/DTD/svg10.dtd">
<svg version="1.0" xmlns="http://www.w3.org/2000/svg"
 width="1080.000000pt" height="1080.000000pt" viewBox="0 0 1080.000000 1080.000000"
 preserveAspectRatio="xMidYMid meet">
<metadata>
Created by potrace 1.14, written by Peter Selinger 2001-2017
</metadata>
<g transform="translate(0.000000,1080.000000) scale(0.100000,-0.100000)"
fill="#000000" stroke="none">
<path d="M5247 9884 c-1 -1 -56 -5 -122 -8 -66 -4 -133 -9 -150 -11 -16 -2
-55 -6 -85 -10 -105 -11 -145 -16 -225 -30 -44 -8 -97 -16 -117 -19 -141 -21
-491 -113 -676 -178 -678 -237 -1291 -619 -1780 -1107 -151 -151 -209 -214
-324 -352 -319 -387 -567 -805 -758 -1284 -31 -77 -97 -264 -105 -295 -2 -8
-13 -44 -24 -80 -48 -156 -105 -397 -127 -540 -2 -19 -9 -57 -14 -85 -11 -61
-18 -120 -26 -205 -3 -36 -8 -76 -10 -90 -17 -106 -25 -754 -11 -910 8 -88 16
-155 22 -190 3 -14 10 -52 15 -85 6 -33 24 -114 40 -180 17 -66 32 -128 34
-137 93 -378 210 -705 365 -1018 74 -150 134 -261 163 -302 10 -14 18 -29 18
-33 0 -7 215 -333 244 -370 8 -11 52 -67 97 -125 146 -187 305 -359 543 -585
171 -163 530 -429 782 -577 127 -74 430 -226 559 -280 235 -98 536 -196 745
-243 130 -29 254 -55 290 -60 25 -3 57 -8 72 -11 15 -3 42 -7 60 -9 18 -3 53
-7 78 -10 25 -3 59 -7 77 -9 18 -3 74 -8 125 -11 51 -4 109 -9 128 -11 50 -5
477 -5 525 0 22 3 81 7 130 11 92 6 269 26 345 40 14 3 42 8 64 11 21 3 46 7
55 9 9 2 84 17 166 33 83 17 177 33 210 36 142 13 289 41 410 78 39 12 75 22
80 24 23 4 175 69 261 110 164 80 349 202 484 322 25 22 97 75 160 117 117 79
307 219 370 274 19 17 40 34 45 38 42 32 188 166 277 253 529 522 924 1152
1158 1850 53 156 111 354 124 421 2 13 10 47 16 74 6 28 14 61 16 75 2 14 9
48 14 75 11 57 17 92 25 150 3 22 8 51 10 65 10 54 21 158 33 305 15 187 7
683 -13 845 -2 19 -7 60 -10 90 -25 240 -122 672 -201 895 -13 39 -26 77 -28
85 -10 37 -92 247 -138 350 -58 131 -171 351 -245 475 -46 76 -83 142 -83 146
0 4 -3 9 -7 11 -5 2 -30 37 -57 78 -45 68 -187 265 -232 320 -195 239 -463
513 -659 676 -139 114 -136 112 -310 240 -290 213 -748 453 -1118 586 -197 71
-547 169 -682 192 -16 2 -68 11 -115 19 -47 8 -107 18 -133 22 -27 3 -56 8
-65 10 -10 1 -49 6 -89 10 -40 4 -85 8 -100 10 -96 12 -586 27 -596 19z"/>
</g>
</svg>
